<?xml version="1.0" encoding="iso-8859-1"?>
<!-- Generator: Adobe Illustrator 22.1.0, SVG Export Plug-In . SVG Version: 6.00 Build 0)  -->
<svg xmlns="http://www.w3.org/2000/svg" xmlns:xlink="http://www.w3.org/1999/xlink" version="1.1" id="Layer_3" x="0px" y="0px" viewBox="0 0 64 64" style="enable-background:new 0 0 64 64;" xml:space="preserve" width="512" height="512">
<g>
	<g>
		<rect x="36" y="56" style="fill:#104055;" width="24" height="6"/>
	</g>
	<g>
		<rect x="36" y="56" style="fill:#176080;" width="20" height="6"/>
	</g>
	<g>
		<path style="fill:#1F80AA;" d="M36,34v-4c0-4.418,3.582-8,8-8h10c4.418,0,8,3.582,8,8v9.515c0,5.433-2.158,10.644-6,14.485l0,0v2    H40v-2l-5.486-4.8C32.916,47.802,32,45.782,32,43.659V38C32,35.791,33.791,34,36,34L36,34c2.209,0,4,1.791,4,4v2"/>
	</g>
	<g>
		<path style="fill:#29ABE2;" d="M58,39.515V30c0-4.418-3.582-8-8-8h-6c-4.418,0-8,3.582-8,8v4c-2.209,0-4,1.791-4,4v5.659    c0,2.123,0.916,4.143,2.514,5.541L40,54v2h12v-2C55.842,50.158,58,44.948,58,39.515z"/>
	</g>
	<g>
		<rect x="38" y="7" style="fill:#666666;" width="14" height="6"/>
		<path style="fill:#4D4D4D;" d="M52.5,13.5h-15v-7h15V13.5z M38.5,12.5h13v-5h-13V12.5z"/>
	</g>
	<g>
		<path style="fill:#666666;" d="M36,18h-6c-1.105,0-2-0.895-2-2V4c0-1.105,0.895-2,2-2h6c1.105,0,2,0.895,2,2v12    C38,17.105,37.105,18,36,18z"/>
	</g>
	<g>
		<path style="fill:#808080;" d="M35,16V4c0-1.105-0.895-2-2-2h-3c-1.105,0-2,0.895-2,2v12c0,1.105,0.895,2,2,2h3    C34.105,18,35,17.105,35,16z"/>
	</g>
	<g>
		<circle style="fill:#666666;" cx="13" cy="17" r="3"/>
	</g>
	<g>
		<ellipse style="fill:#808080;" cx="12" cy="17" rx="2" ry="2.816"/>
	</g>
	<g>
		<rect x="11" y="6" style="fill:#666666;" width="4" height="4"/>
	</g>
	<g>
		<rect x="2" y="2" style="fill:#666666;" width="22" height="4"/>
	</g>
	<g>
		<rect x="2" y="2" style="fill:#808080;" width="18" height="4"/>
	</g>
	<g>
		<path style="fill:#911D22;" d="M7,26h12c1.657,0,3,1.343,3,3v27c0,3.314-2.686,6-6,6h-6c-3.314,0-6-2.686-6-6V29    C4,27.343,5.343,26,7,26z"/>
	</g>
	<g>
		<path style="fill:#C1272D;" d="M18,56V29c0-1.657-1.343-3-3-3H7c-1.657,0-3,1.343-3,3v27c0,3.314,2.686,6,6,6h2    C15.314,62,18,59.314,18,56z"/>
	</g>
	<g>
		<path style="fill:#490F11;" d="M16,62h-6c-3.314,0-6-2.686-6-6v-4h18v4C22,59.314,19.314,62,16,62z"/>
	</g>
	<g>
		<path style="fill:#911D22;" d="M18,56v-4H4v4c0,3.314,2.686,6,6,6h2C15.314,62,18,59.314,18,56z"/>
	</g>
	<g>
		<path d="M24,7H2C1.448,7,1,6.553,1,6V2c0-0.553,0.448-1,1-1h22c0.552,0,1,0.447,1,1v4C25,6.553,24.552,7,24,7z M3,5h20V3H3V5z"/>
	</g>
	<g>
		<path d="M15,11h-4c-0.552,0-1-0.447-1-1V6h2v3h2V6h2v4C16,10.553,15.552,11,15,11z"/>
	</g>
	<g>
		<rect x="12" y="10" width="2" height="5"/>
	</g>
	<g>
		<path d="M13,21c-2.206,0-4-1.794-4-4s1.794-4,4-4s4,1.794,4,4S15.206,21,13,21z M13,15c-1.103,0-2,0.897-2,2s0.897,2,2,2    s2-0.897,2-2S14.103,15,13,15z"/>
	</g>
	<g>
		<rect x="5.986" y="21.5" transform="matrix(0.3448 -0.9387 0.9387 0.3448 -14.7554 23.8606)" width="7.457" height="2"/>
	</g>
	<g>
		<rect x="15.5" y="18.692" transform="matrix(0.9191 -0.3939 0.3939 0.9191 -7.5291 8.3189)" width="1.999" height="7.616"/>
	</g>
	<g>
		<path d="M16,63h-6c-3.86,0-7-3.141-7-7V29c0-2.206,1.794-4,4-4h12c2.206,0,4,1.794,4,4v27C23,59.859,19.86,63,16,63z M7,27    c-1.103,0-2,0.897-2,2v27c0,2.757,2.243,5,5,5h6c2.757,0,5-2.243,5-5V29c0-1.103-0.897-2-2-2H7z"/>
	</g>
	<g>
		<rect x="4" y="51" width="18" height="2"/>
	</g>
	<g>
		<path d="M36,19h-6c-1.654,0-3-1.346-3-3V4c0-1.654,1.346-3,3-3h6c1.654,0,3,1.346,3,3v12C39,17.654,37.654,19,36,19z M30,3    c-0.551,0-1,0.448-1,1v12c0,0.552,0.449,1,1,1h6c0.551,0,1-0.448,1-1V4c0-0.552-0.449-1-1-1H30z"/>
	</g>
	<g>
		<path style="fill:#666666;" d="M60,18h-6c-1.105,0-2-0.895-2-2V4c0-1.105,0.895-2,2-2h6c1.105,0,2,0.895,2,2v12    C62,17.105,61.105,18,60,18z"/>
	</g>
	<g>
		<path style="fill:#808080;" d="M59,16V4c0-1.105-0.895-2-2-2h-3c-1.105,0-2,0.895-2,2v12c0,1.105,0.895,2,2,2h3    C58.105,18,59,17.105,59,16z"/>
	</g>
	<g>
		<path d="M60,19h-6c-1.654,0-3-1.346-3-3V4c0-1.654,1.346-3,3-3h6c1.654,0,3,1.346,3,3v12C63,17.654,61.654,19,60,19z M54,3    c-0.551,0-1,0.448-1,1v12c0,0.552,0.449,1,1,1h6c0.551,0,1-0.448,1-1V4c0-0.552-0.449-1-1-1H54z"/>
	</g>
	<g>
		<path d="M52,14H38c-0.552,0-1-0.447-1-1V7c0-0.553,0.448-1,1-1h14c0.552,0,1,0.447,1,1v6C53,13.553,52.552,14,52,14z M39,12h12V8    H39V12z"/>
	</g>
	<g>
		<path d="M41,56h-2v-1.546l-5.145-4.501C32.041,48.364,31,46.07,31,43.659V38c0-2.757,2.243-5,5-5s5,2.243,5,5v2h-2v-2    c0-1.654-1.346-3-3-3s-3,1.346-3,3v5.659c0,1.835,0.792,3.58,2.173,4.788l5.486,4.8C40.875,53.438,41,53.712,41,54V56z"/>
	</g>
	<g>
		<path d="M57,56h-2v-2c0-0.266,0.105-0.52,0.293-0.707C58.973,49.612,61,44.72,61,39.515V30c0-3.859-3.14-7-7-7H44    c-3.86,0-7,3.141-7,7v4h-2v-4c0-4.963,4.038-9,9-9h10c4.962,0,9,4.037,9,9v9.515c0,5.6-2.127,10.872-6,14.894V56z"/>
	</g>
	<g>
		<path d="M60,63H36c-0.552,0-1-0.447-1-1v-6c0-0.553,0.448-1,1-1h24c0.552,0,1,0.447,1,1v6C61,62.553,60.552,63,60,63z M37,61h22    v-4H37V61z"/>
	</g>
</g>
</svg>
